<svg
  width="14"
  height="14"
  viewBox="0 0 14 14"
  fill="none"
  xmlns="http://www.w3.org/2000/svg"
>
  <path
    d="M7.33356 1.75C7.57877 1.75 7.78142 1.92955 7.81349 2.16251L7.81791 2.22727L7.81766 10.6172L10.8809 7.5861C11.0697 7.39931 11.3763 7.39866 11.5659 7.58465C11.7382 7.75372 11.7544 8.01884 11.6141 8.20598L11.5674 8.25961L7.67704 12.1096L7.66684 12.119C7.65638 12.1288 7.64548 12.1381 7.63417 12.147L7.67704 12.1096C7.6583 12.1282 7.6384 12.1449 7.61756 12.1597C7.60447 12.1687 7.59088 12.1775 7.57684 12.1855C7.5456 12.2037 7.5129 12.2178 7.47929 12.2282C7.46744 12.2317 7.45533 12.235 7.44305 12.2378C7.43368 12.24 7.42415 12.2419 7.41458 12.2435C7.40422 12.2451 7.39384 12.2465 7.38337 12.2475C7.37286 12.2487 7.36212 12.2494 7.35137 12.2498C7.34541 12.2499 7.3395 12.25 7.33356 12.25L7.31748 12.2499C7.30555 12.2495 7.29363 12.2486 7.28175 12.2474L7.33356 12.25C7.3059 12.25 7.27879 12.2477 7.25239 12.2433C7.24037 12.2414 7.22829 12.2389 7.21631 12.2359C7.20678 12.2336 7.19743 12.231 7.1882 12.2281C7.17724 12.2248 7.16619 12.2209 7.15526 12.2166C7.14398 12.2122 7.13296 12.2074 7.12216 12.2023C7.1139 12.1983 7.10538 12.194 7.09696 12.1893C7.08118 12.1805 7.06638 12.1712 7.05214 12.1612C7.04992 12.1596 7.04746 12.1579 7.04501 12.1561C7.02339 12.1402 7.00432 12.1237 6.98666 12.1058L3.09965 8.25964C2.91089 8.07287 2.91153 7.77067 3.10107 7.58467C3.27338 7.41558 3.5425 7.40073 3.73182 7.53975L3.78605 7.58607L6.84875 10.6167L6.84921 2.22727C6.84921 1.96368 7.06606 1.75 7.33356 1.75Z"
  />
</svg>
