<svg
  width="24"
  height="24"
  viewBox="0 0 24 24"
  fill="none"
  xmlns="http://www.w3.org/2000/svg"
>
  <path
    d="M10.258 14.4563L10.5778 14.4576C15.2222 14.4981 17.85 15.4361 17.85 17.9983C17.85 20.5061 15.3315 21.4736 10.8901 21.5546L10.258 21.5603C5.41366 21.5603 2.66699 20.6394 2.66699 18.0183C2.66699 15.3937 5.42458 14.4563 10.258 14.4563ZM10.258 15.9563C6.24064 15.9563 4.16699 16.6612 4.16699 18.0183C4.16699 19.3667 6.23567 20.0603 10.258 20.0603C14.2756 20.0603 16.35 19.3552 16.35 17.9983C16.35 16.6505 14.2794 15.9563 10.258 15.9563ZM18.2537 13.7481C18.8343 13.7876 19.4114 13.8708 19.9661 13.9938C21.1542 14.2301 22.0375 14.6713 22.4422 15.5204C22.741 16.1491 22.741 16.8806 22.4422 17.5092C22.0398 18.3563 21.1657 18.7942 19.9709 19.04C19.5652 19.1234 19.1686 18.8622 19.0852 18.4565C19.0017 18.0507 19.263 17.6542 19.6687 17.5707C20.4375 17.4126 20.9492 17.1562 21.0874 16.8654C21.1926 16.6441 21.1926 16.3856 21.0878 16.165C20.9487 15.8732 20.4343 15.6163 19.6577 15.4616C19.1603 15.3515 18.6575 15.279 18.1519 15.2446C17.7386 15.2165 17.4264 14.8587 17.4545 14.4455C17.4826 14.0322 17.8404 13.72 18.2537 13.7481ZM10.258 2.49976C13.106 2.49976 15.393 4.78636 15.393 7.63376C15.393 10.482 13.1062 12.7688 10.258 12.7688C7.40992 12.7688 5.12399 10.4821 5.12399 7.63376C5.12399 4.78622 7.4101 2.49976 10.258 2.49976ZM16.6867 3.56936C18.9216 3.56936 20.7337 5.38183 20.7337 7.61636C20.7337 9.85157 18.9219 11.6634 16.6867 11.6634C16.2725 11.6634 15.9367 11.3276 15.9367 10.9134C15.9367 10.4991 16.2725 10.1634 16.6867 10.1634C18.0935 10.1634 19.2337 9.02314 19.2337 7.61636C19.2337 6.21019 18.0931 5.06936 16.6867 5.06936C16.2725 5.06936 15.9367 4.73357 15.9367 4.31936C15.9367 3.90514 16.2725 3.56936 16.6867 3.56936ZM10.258 3.99976C8.23858 3.99976 6.62399 5.6146 6.62399 7.63376C6.62399 9.65379 8.23845 11.2688 10.258 11.2688C12.2778 11.2688 13.893 9.65354 13.893 7.63376C13.893 5.61484 12.2777 3.99976 10.258 3.99976Z"
    fill="#65B0F6"
  />
</svg>
