<svg
  width="24"
  height="24"
  viewBox="0 0 24 24"
  fill="none"
  xmlns="http://www.w3.org/2000/svg"
>
  <path
    d="M13.951 2.71645L14.1333 2.88645L14.8521 3.6052C15.0989 3.85092 15.4228 4.00242 15.7673 4.03646L15.916 4.04378H16.944C18.5478 4.04378 19.8592 5.29795 19.9509 6.87883L19.956 7.05578V8.08278C19.956 8.43258 20.0766 8.76886 20.2942 9.03624L20.3933 9.14645L21.1121 9.86525C22.2436 10.9917 22.2942 12.7929 21.2576 13.98L21.1223 14.1251L20.3939 14.8535C20.149 15.099 19.9974 15.4231 19.9633 15.7672L19.956 15.9158V16.9448C19.956 18.5485 18.7019 19.8591 17.1209 19.9507L16.944 19.9558H15.916C15.5674 19.9558 15.2307 20.0769 14.9632 20.2951L14.8529 20.3945L14.1351 21.1113C13.0099 22.2442 11.2073 22.2944 10.0198 21.2574L9.86565 21.1131L9.14854 20.396C8.90014 20.1494 8.57571 19.9973 8.2322 19.9631L8.08398 19.9558H7.05498C5.45185 19.9558 4.1407 18.7023 4.0491 17.1217L4.04398 16.9448V15.9158C4.04398 15.5678 3.92268 15.2308 3.7046 14.9637L3.60528 14.8537L2.88816 14.1356C1.75558 13.0094 1.70534 11.2068 2.74236 10.0204L2.87765 9.87545L3.60377 9.14834C3.85072 8.89963 4.00255 8.57581 4.03664 8.23146L4.04398 8.08278V7.05578L4.0491 6.87885C4.13732 5.35668 5.35648 4.13715 6.87811 4.0489L7.05498 4.04378H8.08398C8.43246 4.04378 8.76923 3.9229 9.03628 3.70572L9.14628 3.60682L9.86445 2.88765C10.9908 1.75618 12.7932 1.70636 13.951 2.71645ZM11.0414 3.84256L10.9267 3.94674L10.2054 4.66899C9.68818 5.18258 9.00406 5.48966 8.28181 5.53727L8.08398 5.54378H7.05498C6.26742 5.54378 5.6197 6.14793 5.55016 6.91821L5.54398 7.05578V8.08278C5.54398 8.81195 5.27937 9.5131 4.80208 10.0612L4.66668 10.2067L3.93951 10.9349C3.3877 11.4892 3.35557 12.3649 3.84322 12.9589L3.94768 13.0738L4.66694 13.7941C5.18134 14.3097 5.48963 14.995 5.53744 15.7178L5.54398 15.9158V16.9448C5.54398 17.7328 6.14769 18.3801 6.9175 18.4496L7.05498 18.4558H8.08398C8.81177 18.4558 9.51353 18.7207 10.0617 19.198L10.2073 19.3335L10.9306 20.0568C11.4888 20.6119 12.3647 20.6442 12.9583 20.1565L13.073 20.0521L13.7939 19.3322C14.3106 18.8179 14.9951 18.5101 15.718 18.4623L15.916 18.4558H16.944C17.7327 18.4558 18.3803 17.8524 18.4498 17.0823L18.456 16.9448V15.9158C18.456 15.1869 18.7208 14.4839 19.1974 13.9383L19.3327 13.7935L20.0602 13.066C20.612 12.511 20.6439 11.6358 20.157 11.0419L20.0527 10.9271L19.3308 10.2052C18.8169 9.68765 18.5101 9.00422 18.4625 8.28094L18.456 8.08278V7.05578C18.456 6.26737 17.8519 5.61951 17.0816 5.54996L16.944 5.54378H15.916C15.1868 5.54378 14.4848 5.27939 13.9379 4.80243L13.7927 4.66711L13.1047 3.97734L13.0649 3.94031C12.5106 3.38855 11.6347 3.35624 11.0414 3.84256ZM15.0964 14.0424C15.1664 14.1124 15.2264 14.1924 15.2664 14.2824C15.2964 14.3724 15.3164 14.4724 15.3164 14.5724C15.3164 14.6734 15.2964 14.7624 15.2664 14.8524C15.2264 14.9424 15.1664 15.0324 15.0964 15.1024C14.9564 15.2424 14.7664 15.3224 14.5664 15.3224C14.3664 15.3224 14.1764 15.2424 14.0364 15.1024C13.9664 15.0324 13.9164 14.9424 13.8764 14.8524C13.8364 14.7624 13.8164 14.6734 13.8164 14.5724C13.8164 14.4724 13.8364 14.3724 13.8764 14.2824C13.9164 14.1924 13.9664 14.1124 14.0364 14.0424C14.3164 13.7624 14.8164 13.7624 15.0964 14.0424ZM15.1 8.89915C15.3663 9.16542 15.3905 9.58208 15.1726 9.87569L15.1 9.95981L9.96001 15.0998C9.66712 15.3927 9.19225 15.3927 8.89935 15.0998C8.63309 14.8335 8.60888 14.4169 8.82673 14.1233L8.89935 14.0392L14.0394 8.89915C14.3322 8.60626 14.8071 8.60626 15.1 8.89915ZM9.95628 8.90278C10.0963 9.04178 10.1763 9.23278 10.1763 9.43278C10.1763 9.53278 10.1663 9.62178 10.1263 9.71278C10.0863 9.80278 10.0263 9.88278 9.95628 9.96278C9.88628 10.0328 9.80628 10.0818 9.71628 10.1218C9.62628 10.1618 9.52628 10.1828 9.42628 10.1828C9.32628 10.1828 9.23628 10.1618 9.14628 10.1218C9.05628 10.0818 8.96628 10.0328 8.89628 9.96278C8.82628 9.88278 8.77628 9.80278 8.73628 9.71278C8.69628 9.62178 8.67628 9.53278 8.67628 9.43278C8.67628 9.33178 8.69628 9.23278 8.73628 9.14278C8.77628 9.05278 8.82628 8.96278 8.89628 8.90278C9.18628 8.62178 9.67628 8.62178 9.95628 8.90278Z"
  />
</svg>
