<svg
  width="24"
  height="24"
  viewBox="0 0 24 24"
  fill="none"
  xmlns="http://www.w3.org/2000/svg"
>
  <path
    d="M9.73049 2.78823C11.0005 1.77923 12.7805 1.73923 14.0895 2.66823L14.2505 2.78823L20.3395 7.65923C21.0095 8.17823 21.4205 8.94923 21.4905 9.78823L21.5005 9.98923V18.0982C21.5005 20.1882 19.8495 21.8882 17.7805 21.9982H15.7905C14.8395 21.9792 14.0705 21.2392 14.0005 20.3092L13.9905 20.1682V17.3092C13.9905 16.9982 13.7595 16.7392 13.4505 16.6882L13.3605 16.6782H10.6895C10.3705 16.6882 10.1105 16.9182 10.0705 17.2182L10.0605 17.3092V20.1592C10.0605 20.2182 10.0495 20.2882 10.0405 20.3382L10.0305 20.3592L10.0195 20.4282C9.90049 21.2792 9.20049 21.9282 8.33049 21.9892L8.20049 21.9982H6.41049C4.32049 21.9982 2.61049 20.3592 2.50049 18.2982V9.98923C2.50949 9.13823 2.88049 8.34823 3.50049 7.79823L9.73049 2.78823ZM13.3805 3.87823C12.6205 3.26823 11.5405 3.23923 10.7405 3.76823L10.5895 3.87823L4.50949 8.77923C4.16049 9.03823 3.95049 9.42823 3.90049 9.83823L3.88949 9.99823V18.0982C3.88949 19.4282 4.92949 20.5182 6.25049 20.5982H8.20049C8.42049 20.5982 8.61049 20.4492 8.63949 20.2392L8.66049 20.0592L8.67049 20.0082V17.3092C8.67049 16.2392 9.49049 15.3692 10.5405 15.2882H13.3605C14.4295 15.2882 15.2995 16.1092 15.3805 17.1592V20.1682C15.3805 20.3782 15.5305 20.5592 15.7305 20.5982H17.5895C18.9295 20.5982 20.0195 19.5692 20.0995 18.2582L20.1105 18.0982V9.99823C20.0995 9.56923 19.9205 9.16823 19.6105 8.86923L19.4805 8.75823L13.3805 3.87823Z"
  />
</svg>
