<svg
  width="24"
  height="24"
  viewBox="0 0 24 24"
  fill="none"
  xmlns="http://www.w3.org/2000/svg"
>
  <path
    d="M16.3212 2.75806C17.8351 2.77511 19.2761 3.41599 20.3085 4.5315C21.3408 5.64701 21.8745 7.13976 21.7865 8.61703L21.7852 14.854C21.8745 16.3763 21.3408 17.8691 20.3085 18.9846C19.2761 20.1001 17.8351 20.741 16.3127 20.7581H7.25208C4.08255 20.7581 1.7959 18.1965 1.7959 14.8991V8.61703C1.7959 5.31957 4.08255 2.75806 7.25208 2.75806H16.3212ZM16.3043 4.28644H7.25208C4.95869 4.28644 3.31334 6.12961 3.31334 8.61703V14.8991C3.31334 17.3865 4.95869 19.2297 7.25208 19.2297H16.3043C17.4032 19.2173 18.4491 18.7521 19.1985 17.9424C19.9479 17.1327 20.3352 16.0492 20.2691 14.8991L20.2704 8.57194C20.3352 7.46693 19.9479 6.38339 19.1985 5.57368C18.4491 4.76397 17.4032 4.29878 16.3043 4.28644ZM17.8199 8.39642C18.058 8.69598 18.0359 9.12067 17.7841 9.39357L17.7017 9.47061L13.5947 12.7817C12.5972 13.5648 11.219 13.6039 10.1789 12.8956L10.0176 12.7775L5.88316 9.47259C5.55494 9.21022 5.50002 8.72952 5.76051 8.39891C5.99731 8.09837 6.41326 8.02533 6.73353 8.21166L6.82647 8.27537L10.9557 11.5762C11.4187 11.9396 12.0534 11.9676 12.5367 11.6649L12.6542 11.5823L16.7535 8.27736C17.0806 8.01361 17.5581 8.06692 17.8199 8.39642Z"
  />
</svg>
