<svg
  width="24"
  height="24"
  viewBox="0 0 24 24"
  fill="none"
  xmlns="http://www.w3.org/2000/svg"
>
  <path
    d="M14.608 19.6906C14.9045 19.9321 14.9515 20.3713 14.7129 20.6715C14.5366 20.8935 14.3327 21.0922 14.1167 21.255C13.3891 21.826 12.464 22.0849 11.5453 21.9754C10.6258 21.8659 9.787 21.3962 9.21459 20.6689C8.9774 20.3676 9.02646 19.9286 9.32418 19.6885C9.62189 19.4484 10.0555 19.4981 10.2927 19.7995C10.6379 20.2381 11.1467 20.523 11.7064 20.5896C12.2669 20.6564 12.8307 20.4986 13.2826 20.1443C13.4158 20.0437 13.5355 19.927 13.6389 19.7969C13.8775 19.4967 14.3114 19.4491 14.608 19.6906ZM5.15213 8.99974L5.16444 8.40391C5.17324 8.14906 5.18686 7.91248 5.20685 7.68096C5.50654 4.44456 8.59565 2 11.9648 2H12.0361C15.4034 2 18.4934 4.44285 18.8034 7.68536C18.8212 7.89148 18.8288 8.07458 18.8311 8.33206L18.832 9.11982C18.8327 9.19158 18.8339 9.25469 18.8358 9.31353L18.845 9.50977L18.8896 9.69688C19.0303 10.218 19.2776 10.7052 19.6162 11.1282L19.7669 11.3055L19.8286 11.3847C20.2348 11.9917 20.4668 12.698 20.5 13.4587L20.499 13.862C20.4707 14.763 20.1399 15.6331 19.5338 16.3582C18.7311 17.2101 17.6434 17.7393 16.4873 17.8457C13.502 18.1699 10.49 18.1699 7.51296 17.8466C6.34896 17.7346 5.26444 17.2069 4.42663 16.3223C3.80882 15.5691 3.48041 14.6208 3.5009 13.6624L3.50175 13.4242C3.53744 12.6955 3.76804 11.9898 4.16936 11.3802L4.23653 11.2938C4.70525 10.7799 5.02569 10.151 5.16473 9.47306L5.14969 9.53395L5.15213 8.99974ZM12.0361 3.39535H11.9648C9.26651 3.39535 6.80804 5.34087 6.57967 7.80678C6.56798 7.94228 6.55866 8.08207 6.55137 8.2292L6.53532 8.69559L6.52879 9.61486L6.51441 9.75667C6.32444 10.683 5.88728 11.5409 5.24929 12.2404L5.29856 12.1833L5.21045 12.3291C5.04539 12.6265 4.9389 12.9495 4.89682 13.2682L4.87935 13.4587L4.87919 13.6774C4.86568 14.3142 5.08086 14.9356 5.45369 15.3931C6.02881 15.9985 6.80682 16.377 7.65168 16.4583C10.5393 16.7719 13.4527 16.7719 16.3514 16.4572C17.1871 16.3802 17.9645 16.002 18.5084 15.4267C18.92 14.933 19.1375 14.3097 19.1216 13.6536L19.1224 13.4901C19.1013 13.0186 18.951 12.5613 18.6873 12.1672L18.7026 12.1926L18.5647 12.0309C18.0893 11.4441 17.744 10.7635 17.5517 10.034L17.4868 9.75818L17.4739 9.66551C17.4642 9.53013 17.4585 9.40982 17.4555 9.26514L17.4528 8.3605C17.4509 8.13044 17.4447 7.97558 17.4307 7.81326C17.1944 5.34075 14.7336 3.39535 12.0361 3.39535Z"
  />
</svg>
