<svg
  width="24"
  height="24"
  viewBox="0 0 24 24"
  fill="none"
  xmlns="http://www.w3.org/2000/svg"
>
  <path
    d="M15.3192 2C18.3816 2 20.3335 3.43503 20.3335 6.25765V20.3309C20.3335 20.7736 20.162 21.1982 19.8567 21.5112C19.5514 21.8242 19.1373 22 18.6943 22C18.43 21.9957 18.1703 21.9291 17.9198 21.7971L12.3075 18.6635L6.71791 21.8037C6.0447 22.1624 5.22894 21.9969 4.7178 21.3975L4.61977 21.2719L4.52612 21.1174C4.40391 20.8782 4.33798 20.613 4.3335 20.3309V6.43434C4.3335 3.49929 6.24264 2 9.34783 2H15.3192ZM15.3192 3.44775H9.34783C6.95275 3.44775 5.74555 4.39579 5.74555 6.43434L5.74545 20.3189C5.74617 20.3631 5.75695 20.4065 5.74522 20.3897L5.78268 20.4519C5.84723 20.5421 5.96835 20.5715 6.05311 20.5265L11.6403 17.3883C12.0568 17.1576 12.5585 17.1576 12.977 17.3894L18.5798 20.5173C18.6222 20.5397 18.669 20.5517 18.7055 20.5523C18.7628 20.5523 18.8177 20.529 18.8582 20.4875C18.8987 20.446 18.9214 20.3897 18.9214 20.3309V6.25765C18.9214 4.35788 17.6835 3.44775 15.3192 3.44775ZM15.7414 8.31663C16.1313 8.31663 16.4474 8.64072 16.4474 9.0405C16.4474 9.40697 16.1818 9.70984 15.8372 9.75777L15.7414 9.76438H8.87392C8.48399 9.76438 8.1679 9.44029 8.1679 9.0405C8.1679 8.67404 8.43351 8.37117 8.77812 8.32324L8.87392 8.31663H15.7414Z"
    fill="#FFB572"
  />
</svg>
