<svg
  width="24"
  height="24"
  viewBox="0 0 24 24"
  fill="none"
  xmlns="http://www.w3.org/2000/svg"
>
  <path
    d="M12.6161 2C13.3251 1.99971 14.0041 2.28061 14.4983 2.77871C14.9925 3.27681 15.2599 3.94968 15.2383 4.57766L15.2468 4.72535C15.2641 4.87079 15.3124 5.01116 15.3908 5.14054C15.5435 5.39567 15.7935 5.58081 16.0857 5.65514C16.3779 5.72947 16.6882 5.68688 16.9821 5.51839L17.146 5.4355C18.3759 4.86897 19.8511 5.31918 20.5333 6.47928L21.1465 7.52174C21.1627 7.54922 21.1769 7.57762 21.1892 7.60674L21.2461 7.71842C21.7945 8.86519 21.4043 10.2293 20.3624 10.9223L20.1051 11.0807C19.9706 11.1726 19.8585 11.2926 19.7742 11.4368C19.6218 11.6929 19.58 11.998 19.658 12.2844C19.736 12.5708 19.9272 12.8149 20.2174 12.9793L20.3843 13.0841C20.8887 13.4297 21.253 13.9391 21.4119 14.523C21.5912 15.1817 21.495 15.8833 21.1399 16.4804L20.4803 17.557L20.3808 17.7089C19.6058 18.8008 18.1011 19.1344 16.9527 18.485L16.8166 18.4163C16.6746 18.3541 16.5214 18.3199 16.382 18.316C16.0786 18.3146 15.7872 18.432 15.5727 18.6422C15.3582 18.8524 15.2383 19.1379 15.2391 19.4698L15.231 19.6414C15.12 20.9703 13.9845 22 12.6164 22H11.3811C9.93219 22 8.75765 20.8493 8.75912 19.4753L8.75063 19.3277C8.73337 19.1822 8.68504 19.0418 8.6027 18.9057C8.45336 18.65 8.20591 18.4633 7.91538 18.3871C7.62484 18.3109 7.31529 18.3516 7.01565 18.5213L6.83762 18.6084C6.2746 18.8565 5.63953 18.9023 5.04445 18.7366C4.37306 18.5497 3.80539 18.1083 3.47412 17.5224L2.83679 16.4442L2.75197 16.2844C2.17157 15.0841 2.62651 13.6412 3.78115 12.9875L3.88645 12.9228C4.19491 12.7137 4.37987 12.3688 4.37987 12C4.37987 11.599 4.16149 11.2284 3.77948 11.0115L3.62449 10.9141C2.51001 10.1548 2.16949 8.68049 2.85989 7.50696L3.50918 6.46166C4.23128 5.23376 5.83155 4.81017 7.06235 5.50171L7.19559 5.5713C7.33141 5.63238 7.47895 5.6648 7.62101 5.66628C8.24742 5.66634 8.75775 5.17352 8.76724 4.54181L8.77575 4.3478C8.82704 3.74716 9.09307 3.1827 9.52796 2.75457C10.0186 2.27155 10.6855 2 11.3811 2H12.6161ZM12.6164 3.44774H11.3811C11.0786 3.44774 10.7887 3.56581 10.5753 3.77582C10.3863 3.96196 10.2706 4.20741 10.2503 4.43661L10.2368 4.7415C10.1334 6.07087 8.99969 7.11416 7.61326 7.11398C7.25588 7.11034 6.90355 7.03293 6.54427 6.87026L6.3519 6.77085C5.8038 6.46315 5.1049 6.64815 4.78057 7.19925L4.13128 8.24455C3.83377 8.75044 3.98256 9.39466 4.44324 9.70925L4.70395 9.871C5.42196 10.3467 5.85754 11.1429 5.85754 12C5.85754 12.8446 5.43413 13.634 4.70219 14.1296L4.54639 14.2256C4.03354 14.5163 3.83562 15.144 4.07398 15.6383L4.13027 15.7449L4.75952 16.8084C4.90728 17.0696 5.1552 17.2624 5.44842 17.344C5.70831 17.4164 5.98569 17.3964 6.20208 17.3018L6.3108 17.2497C6.91096 16.9066 7.62614 16.8126 8.29737 16.9886C8.96861 17.1645 9.54028 17.5959 9.87937 18.1768C10.0618 18.478 10.1772 18.8132 10.2219 19.1985L10.2421 19.552C10.3043 20.1145 10.7905 20.5523 11.3811 20.5523H12.6164C13.2137 20.5523 13.7099 20.1023 13.7565 19.5511L13.7621 19.4421C13.7588 18.7585 14.0345 18.1019 14.5279 17.6185C15.0212 17.1351 15.6914 16.865 16.4053 16.8686C16.7556 16.8778 17.1004 16.9547 17.4528 17.11L17.7687 17.2682C18.2647 17.4814 18.8529 17.3258 19.1511 16.9067L19.2236 16.7957L19.868 15.7436C20.0203 15.4875 20.0621 15.1824 19.9841 14.896C19.915 14.6422 19.7566 14.4207 19.5645 14.2882L19.2922 14.1195C18.7716 13.7748 18.3932 13.2563 18.2302 12.6574C18.0509 11.9987 18.1471 11.2971 18.4946 10.7126C18.6849 10.3872 18.9464 10.1073 19.2873 9.87532L19.448 9.77613C19.9601 9.4827 20.1578 8.85504 19.9212 8.35884L19.8505 8.22529L19.8378 8.19726L19.253 7.20208C18.9764 6.73175 18.4008 6.52853 17.9125 6.6891L17.8015 6.73265L17.6983 6.78415C17.1001 7.12941 16.3863 7.22736 15.7143 7.05641C15.0423 6.88546 14.4673 6.45965 14.1181 5.87616C13.9357 5.57504 13.8203 5.23984 13.7756 4.85454L13.7624 4.60249C13.7713 4.29923 13.6546 4.00536 13.4387 3.78783C13.2229 3.57029 12.9264 3.44774 12.6164 3.44774ZM12.0032 8.73182C13.8455 8.73182 15.339 10.195 15.339 12C15.339 13.805 13.8455 15.2682 12.0032 15.2682C10.161 15.2682 8.66748 13.805 8.66748 12C8.66748 10.195 10.161 8.73182 12.0032 8.73182ZM12.0032 10.1796C10.977 10.1796 10.1452 10.9946 10.1452 12C10.1452 13.0054 10.977 13.8204 12.0032 13.8204C13.0294 13.8204 13.8613 13.0054 13.8613 12C13.8613 10.9946 13.0294 10.1796 12.0032 10.1796Z"
  />
</svg>
